<svg xmlns="http://www.w3.org/2000/svg" width="34" height="34" viewBox="0 0 17 17"><g><g><path fill="#fff" d="M14.654 14.9c0 .88-.72 1.6-1.6 1.6-.88 0-1.6-.72-1.6-1.6 0-.88.72-1.6 1.6-1.6.88 0 1.6.72 1.6 1.6zM3.1.746l.76 1.6H15.7c.44 0 .8.32.8.76 0 .16-.033.306-.08.4L13.54 8.46c-.28.52-.8.84-1.4.84H6.18l-.8 1.262s-.084.16-.084.2c0 .12.08.2.2.2h9.158V12.5H5.3c-.992 0-1.724-.529-1.724-1.6 0-.28.08-.56.2-.76L4.98 8.18 2.1 2.346H.5v-1.6zM6.777 14.9c0 .88-.72 1.6-1.6 1.6-.88 0-1.6-.72-1.6-1.6 0-.88.72-1.6 1.6-1.6.88 0 1.6.72 1.6 1.6z"/></g></g></svg>